<svg width="24" height="24" viewBox="0 0 24 24" fill="none" xmlns="http://www.w3.org/2000/svg">
<rect x="3.9443" y="4.93297" width="2.76572" height="21.2029" transform="rotate(-45 3.9443 4.93297)" fill="#FF8000" stroke="black" stroke-width="0.5"/>
<path d="M1.97246 1.90048L2.86739 1.00554C3.16029 0.712652 3.63516 0.712652 3.92805 1.00554L5.0626 2.14009L3.10701 4.09568L1.97246 2.96114C1.67957 2.66824 1.67957 2.19337 1.97246 1.90048Z" fill="#FF8000" stroke="black" stroke-width="0.5"/>
<path d="M21.7896 1.33142C21.2496 0.791389 20.3741 0.791413 19.834 1.33142L3.81366 17.3518L5.76925 19.3074L21.7896 3.28701C22.3296 2.74698 22.3296 1.87145 21.7896 1.33142Z" fill="#FF8000" stroke="black" stroke-width="0.5"/>
<path d="M20.0286 20.5614L21.5284 19.0616L22.8971 21.93L20.0286 20.5614Z" fill="#FF8000" stroke="black" stroke-width="0.5"/>
<path d="M1.60225 19.3409C2.26981 18.5658 3.58878 18.527 4.56001 19.3634C4.66969 19.4578 4.712 19.5308 4.72697 19.5781C4.73967 19.6186 4.73834 19.6586 4.71543 19.7112C4.65853 19.8412 4.49138 20.0015 4.20809 20.197C3.92966 20.3892 3.61191 20.5696 3.27884 20.7822C2.96094 20.9851 2.63762 21.2125 2.41671 21.469C2.17482 21.7499 2.08548 22.0279 2.06394 22.2633L2.06383 22.2619C1.09277 21.4256 0.935016 20.1161 1.60225 19.3409Z" fill="#FF8000" stroke="black" stroke-width="0.5"/>
<path d="M21.4951 6.58185C21.4033 11.5063 19.0487 16.121 15.0996 19.0828L12 21.407L8.90039 19.0828C4.95129 16.121 2.59569 11.5063 2.50391 6.58185L12 1.5965L21.4951 6.58185Z" fill="#FF8000" stroke="black"/>
<path d="M18.7461 7.9422C18.684 11.1637 17.0888 14.1676 14.4424 16.0193L12 17.7274L9.55762 16.0193C6.91117 14.1676 5.31498 11.1638 5.25293 7.9422L12 6.28985L18.7461 7.9422Z" fill="#FF8000" stroke="black" stroke-width="0.5"/>
<path d="M12 6.03302L13 12.033L12 18.033L11 12.033L12 6.03302Z" fill="black"/>
</svg>
