<svg width="24" height="21" viewBox="0 0 24 21" fill="none" xmlns="http://www.w3.org/2000/svg">
<path d="M10.9194 0.760905C11.4293 0.412998 12.1009 0.413066 12.6108 0.760905L22.3725 7.42497C23.5907 8.25699 23.0021 10.163 21.5268 10.1632H20.7651V19.5099C20.7651 20.0622 20.3174 20.5099 19.7651 20.5099H3.76509C3.21285 20.5099 2.76509 20.0622 2.76509 19.5099V10.1632H2.00337C0.528202 10.1629 -0.0604735 8.25697 1.15766 7.42497L10.9194 0.760905Z" fill="#FF8000"/>
<path fill-rule="evenodd" clip-rule="evenodd" d="M10.9194 0.760905L10.6376 0.347891L10.6375 0.347956L10.9194 0.760905ZM12.6108 0.760905L12.8927 0.347956L12.8926 0.347857L12.6108 0.760905ZM22.3725 7.42497L22.6545 7.01208L22.6544 7.01202L22.3725 7.42497ZM21.5268 10.1632V10.6632H21.5269L21.5268 10.1632ZM20.7651 10.1632V9.66325H20.2651V10.1632H20.7651ZM3.76509 20.5099L3.76503 21.0099H3.76509V20.5099ZM2.76509 10.1632H3.26509V9.66325H2.76509V10.1632ZM2.00337 10.1632L2.00325 10.6632H2.00337V10.1632ZM1.15766 7.42497L0.875756 7.01202L0.87566 7.01208L1.15766 7.42497ZM10.9194 0.760905L11.2012 1.17392C11.5411 0.942021 11.989 0.942022 12.329 1.17395L12.6108 0.760905L12.8926 0.347857C12.2127 -0.11589 11.3175 -0.116026 10.6376 0.347891L10.9194 0.760905ZM12.6108 0.760905L12.3289 1.17385L22.0906 7.83792L22.3725 7.42497L22.6544 7.01202L12.8927 0.347956L12.6108 0.760905ZM22.3725 7.42497L22.0905 7.83785C22.9026 8.3925 22.5102 9.66307 21.5267 9.66325L21.5268 10.1632L21.5269 10.6632C23.4939 10.6629 24.2788 8.12149 22.6545 7.01208L22.3725 7.42497ZM21.5268 10.1632V9.66325H20.7651V10.1632V10.6632H21.5268V10.1632ZM20.7651 10.1632H20.2651V19.5099H20.7651H21.2651V10.1632H20.7651ZM20.7651 19.5099H20.2651C20.2651 19.7861 20.0412 20.0099 19.7651 20.0099V20.5099V21.0099C20.5935 21.0099 21.2651 20.3384 21.2651 19.5099H20.7651ZM19.7651 20.5099V20.0099H3.76509V20.5099V21.0099H19.7651V20.5099ZM3.76509 20.5099L3.76514 20.0099C3.48895 20.0099 3.26509 19.786 3.26509 19.5099H2.76509H2.26509C2.26509 20.3384 2.93675 21.0098 3.76503 21.0099L3.76509 20.5099ZM2.76509 19.5099H3.26509V10.1632H2.76509H2.26509V19.5099H2.76509ZM2.76509 10.1632V9.66325H2.00337V10.1632V10.6632H2.76509V10.1632ZM2.00337 10.1632L2.00349 9.66325C1.01992 9.66301 0.62772 8.39242 1.43967 7.83785L1.15766 7.42497L0.87566 7.01208C-0.748667 8.12152 0.0364817 10.6628 2.00325 10.6632L2.00337 10.1632ZM1.15766 7.42497L1.43957 7.83792L11.2013 1.17385L10.9194 0.760905L10.6375 0.347956L0.875756 7.01202L1.15766 7.42497Z" fill="black"/>
<path d="M9.50095 12H13.5009C13.7771 12 14.0009 12.2239 14.0009 12.5V19H9.00095V12.5C9.00095 12.2583 9.17239 12.0563 9.40036 12.0098L9.50095 12Z" fill="#D9D9D9" stroke="black"/>
</svg>
